<svg xmlns="http://www.w3.org/2000/svg" width="1200" height="630" viewBox="0 0 1200 630" font-family='"SF Mono","Cascadia Code","JetBrains Mono",Menlo,Consolas,monospace' role="img" aria-label="aireceipts session card, Claude Code · Jun 18 2026, total $0.18, cache served 85% of input"><rect x="0" y="0" width="1200" height="630" fill="#14181C"/><text x="64" y="74" font-size="25" fill="#EBE8DF" text-anchor="start" font-weight="600" letter-spacing="6">AIRECEIPTS</text><text x="1136" y="74" font-size="22" fill="#8E938F" text-anchor="end" letter-spacing="1">Claude Code · Jun 18 2026</text><line x1="64" y1="102" x2="1136" y2="102" stroke="#2C3237" stroke-width="1.5" stroke-dasharray="5 5"/><text x="64" y="148" font-size="15" fill="#8E938F" text-anchor="start" letter-spacing="3">TOTAL</text><text x="64" y="244" font-size="108" fill="#EBE8DF" text-anchor="start" font-weight="600">$0.18</text><text x="64" y="286" font-size="21" fill="#EBE8DF" text-anchor="start">1 session</text><text x="64" y="314" font-size="18" fill="#8E938F" text-anchor="start">147k tokens</text><text x="64" y="532" font-size="14" fill="#8E938F" text-anchor="start">(arithmetic, not a prediction)</text><text x="64" y="506" font-size="20" fill="#EBE8DF" text-anchor="start">↘ same tokens on claude-haiku-4-5 $0.04 (78% less)</text><text x="88" y="474" font-size="20" fill="#EBE8DF" text-anchor="start">cache served 85% of input</text><text x="64" y="474" font-size="20" fill="#48C6A0" text-anchor="start" font-weight="700">✓</text><text x="630" y="144" font-size="16" fill="#8E938F" text-anchor="start" letter-spacing="3">MODEL MIX</text><rect x="630" y="158" width="439.29" height="22" fill="#EBE8DF"/><rect x="1071.29" y="158" width="64.71" height="22" fill="#48C6A0"/><rect x="630" y="199" width="13" height="13" rx="2" fill="#EBE8DF"/><text x="651" y="210" font-size="16" fill="#8E938F" text-anchor="start">claude-opus-4-8 87%</text><rect x="877.64" y="199" width="13" height="13" rx="2" fill="#48C6A0"/><text x="898.64" y="210" font-size="16" fill="#8E938F" text-anchor="start">claude-sonnet-5 13%</text><text x="630" y="256" font-size="22" fill="#EBE8DF" text-anchor="start">Bash</text><text x="1136" y="256" font-size="22" fill="#EBE8DF" text-anchor="end">$0.05</text><line x1="692.8" y1="251" x2="1060" y2="251" stroke="#8E938F" stroke-width="1.5" stroke-linecap="round" stroke-dasharray="0.1 7"/><text x="630" y="290" font-size="22" fill="#EBE8DF" text-anchor="start">Edit</text><text x="1136" y="290" font-size="22" fill="#EBE8DF" text-anchor="end">$0.05</text><line x1="692.8" y1="285" x2="1060" y2="285" stroke="#8E938F" stroke-width="1.5" stroke-linecap="round" stroke-dasharray="0.1 7"/><text x="630" y="324" font-size="22" fill="#8E938F" text-anchor="start">(thinking/reply)</text><text x="1136" y="324" font-size="22" fill="#8E938F" text-anchor="end">$0.03</text><line x1="851.2" y1="319" x2="1060" y2="319" stroke="#8E938F" stroke-width="1.5" stroke-linecap="round" stroke-dasharray="0.1 7"/><text x="630" y="358" font-size="22" fill="#EBE8DF" text-anchor="start">Write</text><text x="1136" y="358" font-size="22" fill="#EBE8DF" text-anchor="end">$0.03</text><line x1="706" y1="353" x2="1060" y2="353" stroke="#8E938F" stroke-width="1.5" stroke-linecap="round" stroke-dasharray="0.1 7"/><text x="630" y="392" font-size="22" fill="#EBE8DF" text-anchor="start">Read</text><text x="1136" y="392" font-size="22" fill="#EBE8DF" text-anchor="end">$0.02</text><line x1="692.8" y1="387" x2="1060" y2="387" stroke="#8E938F" stroke-width="1.5" stroke-linecap="round" stroke-dasharray="0.1 7"/><line x1="64" y1="558" x2="1136" y2="558" stroke="#2C3237" stroke-width="1.5" stroke-dasharray="5 5"/><text x="64" y="586" font-size="17" fill="#8E938F" text-anchor="start">local · npx aireceipts-cli</text><text x="1136" y="586" font-size="17" fill="#48C6A0" text-anchor="end">proof, not vibes</text></svg>